<?xml version="1.0" encoding="utf-8"?>
<!-- Generator: Adobe Illustrator 23.1.0, SVG Export Plug-In . SVG Version: 6.00 Build 0)  -->
<svg version="1.1" id="Layer_1" xmlns="http://www.w3.org/2000/svg" xmlns:xlink="http://www.w3.org/1999/xlink" x="0px" y="0px"
	 viewBox="0 0 288 560" style="enable-background:new 0 0 288 560;" xml:space="preserve">
<style type="text/css">
	.st0{fill:#FFFFFF;stroke:#000000;stroke-miterlimit:10;}
	.st1{fill:none;stroke:#000000;stroke-miterlimit:10;}
	.st2{fill:#B2A1A1;stroke:#000000;stroke-miterlimit:10;}
</style>
<circle class="st0" cx="135.2" cy="385.8" r="131"/>
<g>
	<path class="st0" d="M141.4,321.3c-0.3,2.1-6.2,39.3-30.4,46.1c-2.8,0.8-6.3,1.3-10.4,0.9"/>
	<path class="st0" d="M141.4,320.3c0.3,2.1,6.2,39.3,30.4,46.1c2.8,0.8,6.3,1.3,10.4,0.9"/>
	<path class="st0" d="M141.4,353.4c6.8,0,12,8,10.7,10.7c-0.6,1.2-4,1.2-10.7,1.2s-10.1,0-10.7-1.2
		C129.4,361.4,134.7,353.4,141.4,353.4z"/>
	<path class="st0" d="M170.9,366.1c-1.3,4.6-7.9,29,2.6,36.9c0.6,0.4,1.2,0.8,1.9,1.1l-69,1.3c0.7-0.3,1.3-0.7,1.9-1.1
		c10.5-7.8,3.9-32.3,2.6-36.8"/>
	<line class="st1" x1="141.4" y1="320.3" x2="141.4" y2="297.5"/>
	<circle class="st1" cx="141.5" cy="306.7" r="6.3"/>
	<line class="st1" x1="111.8" y1="367.4" x2="170.5" y2="367.4"/>
</g>
<g id="Weza_x5F_right">
	<path class="st0" d="M199.1,393.9l9.3-0.2c-0.1-5.8-4.2-10.6-9.3-10.6s-9.3,4.9-9.3,10.8L199.1,393.9L199.1,393.9z"/>
	<polygon class="st0" points="179.8,337.3 179.8,346.2 188.7,346.2 188.7,337.3 195.8,337.3 195.8,346.2 204.6,346.2 204.6,337.3 
		211.7,337.3 211.7,346.2 220.6,346.2 220.6,337.3 227,337.3 227,358.1 171.2,358.1 171.2,337.3 	"/>
	<line class="st1" x1="179.6" y1="359.2" x2="176.5" y2="400.7"/>
	<line class="st1" x1="220.6" y1="358.1" x2="230.4" y2="472"/>
	<line class="st1" x1="230.2" y1="472.1" x2="180.5" y2="471.8"/>
	<line class="st1" x1="210.1" y1="434" x2="210.1" y2="443.1"/>
	<line class="st1" x1="213.1" y1="440.9" x2="198.9" y2="440.6"/>
	<line class="st1" x1="211.8" y1="436.7" x2="195.4" y2="436.7"/>
	<line class="st1" x1="198.4" y1="438.5" x2="198.4" y2="431.3"/>
	<line class="st1" x1="176.5" y1="400.7" x2="180.5" y2="471.8"/>
</g>
<g id="Weza">
	<path class="st0" d="M68.9,392.8l-9.3-0.2c0.1-5.8,4.2-10.6,9.3-10.6c5.1,0,9.3,4.9,9.3,10.8L68.9,392.8L68.9,392.8z"/>
	<polygon class="st0" points="88.2,336.2 88.2,345.1 79.3,345.1 79.3,336.2 72.2,336.2 72.2,345.1 63.4,345.1 63.4,336.2 
		56.3,336.2 56.3,345.1 47.4,345.1 47.4,336.2 41,336.2 41,357 96.8,357 96.8,336.2 	"/>
	<line class="st1" x1="88.4" y1="358.1" x2="91.5" y2="399.6"/>
	<line class="st1" x1="47.5" y1="357" x2="37.6" y2="470.9"/>
	<line class="st1" x1="37.8" y1="471" x2="87.5" y2="470.7"/>
	<line class="st1" x1="58" y1="432.9" x2="58" y2="442"/>
	<line class="st1" x1="54.9" y1="439.8" x2="69.1" y2="439.5"/>
	<line class="st1" x1="56.3" y1="435.7" x2="72.6" y2="435.6"/>
	<line class="st1" x1="69.6" y1="437.4" x2="69.6" y2="430.2"/>
	<line class="st1" x1="91.5" y1="399.6" x2="87.5" y2="470.7"/>
</g>
<g id="Stena">
	<polygon class="st2" points="173.4,390.1 173.4,402.3 156.1,402.3 156.1,390.1 127.8,390.1 127.8,402.3 110.5,402.3 110.5,390.1 
		91.5,390.1 91.5,409.9 191.3,409.9 191.3,390.1 	"/>
	<path class="st0" d="M181.3,387.4v21.9h-21.9v-21.9h-28.7v21.9h-21.9v-21.9H88.4v84.7h45.4v-19.8c0-5.6,4.6-10.2,10.2-10.2
		c5.6,0,10.2,4.6,10.2,10.2v19.8h45.4v-84.7H181.3z"/>
</g>
<g>
	<path class="st0" d="M134.8,508.7c9.6-20.2,8-27.5,3-29.6c-3.2-1.3-8.9-1.1-9.4-2.7c-0.5-1.4,3-3.1,6.4-4.4"/>
	<path class="st0" d="M154.3,508.7c9.6-20.2,8-27.5,3-29.6c-3.2-1.3-8.9-1.1-9.4-2.7c-0.5-1.4,3-3.1,6.4-4.4"/>
</g>
</svg>
